<?xml version="1.0" encoding="utf-8"?>
<!-- Generator: Adobe Illustrator 17.1.0, SVG Export Plug-In . SVG Version: 6.00 Build 0)  -->
<!DOCTYPE svg PUBLIC "-//W3C//DTD SVG 1.1//EN" "http://www.w3.org/Graphics/SVG/1.1/DTD/svg11.dtd">
<svg version="1.1" id="Ellipse_2_1_" xmlns="http://www.w3.org/2000/svg" xmlns:xlink="http://www.w3.org/1999/xlink" x="0px"
	 y="0px" viewBox="102 237.9 350 343" enable-background="new 102 237.9 350 343" xml:space="preserve">
<g id="Ellipse_2">
	<g>
		<path fill="#FFFFFF" d="M261.8,433.1c-3,0-5.2,1.5-6.7,4.1c-1.5,3-2.2,6.7-2.2,11.2c0,4.5,0.7,8.2,2.2,11.2c1.5,3,3.7,4.1,6.7,4.1
			s5.2-1.5,6.7-4.1c1.5-3,2.2-6.7,2.2-11.2c0-4.5-0.7-8.2-2.2-11.2C267.1,434.5,264.8,433.1,261.8,433.1z M307.5,433.1
			c-3,0-5.2,1.5-6.7,4.1c-1.5,3-2.2,6.7-2.2,11.2c0,4.5,0.7,8.2,2.2,11.2c1.5,3,3.7,4.1,6.7,4.1s5.2-1.5,6.7-4.1
			c1.5-3,2.2-6.7,2.2-11.2c0-4.5-0.7-8.2-2.2-11.2C312.8,434.5,310.5,433.1,307.5,433.1z M351.7,368.3c1.5-4.8,1.9-8.9,0-8.9
			c-2.6,0-6,8.6-7.9,19c-0.4,1.5-0.4,3.4-0.7,4.8C345.7,381.7,349.4,376.8,351.7,368.3z M281.7,252.9
			c-88.4,0-160.2,71.1-160.2,159.3c0,87.9,71.5,159,160.2,159c88.4,0,160.2-71.1,160.2-159C441.9,324,370,252.9,281.7,252.9z
			 M249.1,331.1c1.9-6,5.6-11.2,10.5-11.2c4.9,0,5.6,5.2,4.1,11.2c-1.9,6.3-6,11.2-10.5,11.2C248.4,342.2,247.2,337.4,249.1,331.1z
			 M235.3,471.8h-32.6V464l13.5-13.8c2.6-2.6,4.9-4.8,6-6.7c1.1-1.5,1.9-3.4,1.9-4.8c0-1.5-0.4-3-1.5-3.7c-1.1-1.1-2.2-1.5-3.7-1.5
			c-3,0-5.6,2.2-8.2,6.3l-8.2-4.8c2.2-3.4,4.5-6,7.1-7.4c2.6-1.9,6-2.6,9.7-2.6c4.1,0,7.5,1.1,10.5,3.7c3,2.6,4.5,6,4.5,10.4
			c0,2.2-0.7,4.5-1.9,6.7c-1.1,2.2-3.4,4.8-6.7,8.2l-8.2,8.6h18.3v9.3H235.3z M276.1,465.8c-3,4.5-7.9,6.3-14.2,6.3
			s-11.2-2.2-14.2-6.3c-3-4.5-4.9-10.1-4.9-17.5c0-7.1,1.5-13,4.9-17.5c3-4.5,7.9-6.3,14.2-6.3s11.2,2.2,14.2,6.3
			c3,4.5,4.9,10.1,4.9,17.5S279.4,461.4,276.1,465.8z M321.7,465.8c-3,4.5-7.9,6.3-14.2,6.3s-11.2-2.2-14.2-6.3
			c-3-4.5-4.9-10.1-4.9-17.5c0-7.1,1.5-13,4.9-17.5c3-4.5,7.9-6.3,14.2-6.3s11.2,2.2,14.2,6.3c3,4.5,4.9,10.1,4.9,17.5
			S325.1,461.4,321.7,465.8z M361.4,467.7c-3.4,3-7.5,4.5-12.4,4.5c-6.4,0-11.6-2.2-15.7-7.1l5.6-7.4c0.4,0.4,0.7,0.7,1.5,1.5
			c0.7,0.7,1.9,1.5,3.7,2.2c1.9,1.1,3.4,1.5,5.2,1.5c1.9,0,3.4-0.4,4.9-1.5c1.5-1.1,1.9-2.6,1.9-4.8c0-2.2-0.7-3.7-2.2-4.8
			c-1.5-1.1-3.4-1.9-5.6-1.9c-2.2,0-5.2,0.7-8.2,2.6L336,448v-22.3H364v8.9h-18.3v7.8c1.5-0.4,3-0.7,4.9-0.7c4.5,0,8.2,1.5,11.6,4.1
			c3.4,2.6,4.9,6.3,4.9,10.8C367,461,364.8,464.7,361.4,467.7z M345,406.3c-6.4,0-14.2-6-13.9-20.8c-5.2,10.8-12.4,20.8-21.3,20.8
			c-6.4,0-14.2-6-13.9-20.8c-5.2,10.4-11.2,19.4-16.1,19.4c-4.9,0-6.7-6-5.6-12.7c1.9-10.8,9.7-31.6,6-31.6
			c-3.4,0-11.6,25.3-13.1,41.3h-12.4c1.5-5.2,2.6-10.4,3.7-15.3c-4.9,10.1-10.5,18.2-15.3,18.2c-4.9,0-6-7.4-4.5-18.2
			c-5.2,9.3-12,16.8-21,17.5c-1.9,0.4-3.4,0.7-4.9,0.7c-7.5,0-10.9-6.7-9.7-11.2c0.7-4.5,10.5-11.9,10.1-8.9
			c-1.5,6.3-1.9,12.7,1.5,12.7c1.9,0,4.1-3.4,4.9-8.6c1.5-9.3-1.1-16.8-1.9-24.9c-2.6,6.3-4.5,11.5-6,14.1l-2.6-1.1
			c3.4-7.8,6.7-16.4,8.2-23.8l0,0c0-0.4,0-0.7,0.4-1.1c1.5-8.6,6.4-12.7,6.4-12.7l9,1.5c0,0-3.4,4.8-4.1,10.4
			c-1.9,11.2,5.6,23.1,3.4,35.7c-0.4,1.9-0.7,3.4-1.5,4.8c3.7-4.5,6.7-10.1,10.1-17.5c1.5-7.4,3.7-15.3,5.2-23.1h11.6
			c-3,14.5-10.9,38.7-7.5,38.7c2.2,0,7.1-9.3,10.5-16.4c1.5-9.3,2.6-17.1,3-22.7l12.4-0.4c-1.5,4.8-3.4,13-4.5,19.4
			c3.7-13,9.7-23.1,16.1-23.1c4.9,0,7.1,4.1,5.6,12.3c-1.5,9.7-10.5,30.5-6,30.5c2.2,0,6.7-8.6,10.1-15.6
			c3.7-16.4,12.7-26.8,20.6-26.8c9.4,0,13.5,8.6,9.7,22.3c-1.1,4.1-13.1,4.1-12.4,1.9c1.9-4.8,3-13,1.1-13c-2.6,0-6,8.6-7.9,19
			s0.4,17.5,5.6,17.5c6.7,0,12.7-8.6,18.3-20.5c3.7-16.4,12.7-27.2,20.6-27.2c9.4,0,13.5,8.6,9.7,22.3c-3.4,11.9-11.6,20.1-19.5,19
			c0.7,4.1,3,6.7,6,6.7c7.1,0,13.5-10.1,19.5-23.5l2.6,1.1C366.3,386.5,357.3,406.3,345,406.3z"/>
	</g>
</g>
</svg>
